<?xml version="1.0" encoding="iso-8859-1"?>
<!-- Generator: Adobe Illustrator 19.0.0, SVG Export Plug-In . SVG Version: 6.00 Build 0)  -->
<svg version="1.1" id="Capa_1" xmlns="http://www.w3.org/2000/svg" xmlns:xlink="http://www.w3.org/1999/xlink" x="0px" y="0px"
	 viewBox="0 0 512.003 512.003" style="enable-background:new 0 0 512.003 512.003;" xml:space="preserve">
<g>
	<g>
		<path d="M277.501,409.423c-3.223-8.858-11.721-14.808-21.143-14.808c-2.624,0-5.212,0.458-7.694,1.36
			c-11.657,4.244-17.688,17.181-13.447,28.839c3.224,8.857,11.722,14.807,21.144,14.807c2.624,0,5.212-0.458,7.693-1.36
			C275.712,434.018,281.744,421.081,277.501,409.423z M258.925,424.166c-0.831,0.303-1.694,0.456-2.563,0.456
			c-3.142,0-5.975-1.984-7.05-4.938c-1.414-3.886,0.597-8.199,4.482-9.613c0.831-0.303,1.694-0.456,2.563-0.456
			c3.141,0,5.974,1.984,7.049,4.939C264.821,418.439,262.811,422.751,258.925,424.166z"/>
	</g>
</g>
<g>
	<g>
		<path d="M511.548,340.263l-10.262-28.19c-0.702-1.929-2.114-3.392-3.832-4.208c-0.015-0.007-0.03-0.016-0.045-0.023
			c-0.112-0.053-0.229-0.094-0.344-0.141c-0.108-0.044-0.214-0.094-0.324-0.133c-0.026-0.01-0.054-0.016-0.081-0.024
			c-1.563-0.535-3.312-0.564-4.985,0.046l-24.525,8.919l-52.171-143.348c-0.001-0.004-0.004-0.007-0.005-0.01l-20.514-56.368
			c-1.08-2.95-3.91-4.931-7.05-4.931c-0.87,0-1.74,0.15-2.56,0.45c-3.89,1.41-5.9,5.73-4.49,9.61l17.961,49.332l-96.315,35.054
			c-0.001,0-0.003,0-0.005,0.001c-0.003,0.001-0.005,0.003-0.008,0.003l-58.718,21.37l-39.336-108.055l51.687-18.81l11.116,30.534
			c1.07,2.95,3.9,4.941,7.04,4.941c0.88,0,1.74-0.15,2.57-0.461l37.589-13.68c1.88-0.68,3.38-2.06,4.23-3.87
			c0.628-1.346,0.833-2.813,0.624-4.246c-0.001-0.008-0.001-0.016-0.002-0.023c-0.029-0.195-0.071-0.391-0.116-0.584
			c-0.013-0.055-0.02-0.107-0.033-0.162c-0.061-0.243-0.135-0.484-0.222-0.724l-11.112-30.535l51.676-18.807l11.114,30.531
			c1.08,2.95,3.91,4.94,7.05,4.94c0.87,0,1.74-0.15,2.57-0.46c3.88-1.41,5.89-5.721,4.48-9.61l-13.68-37.589
			c-0.945-2.581-3.229-4.42-5.89-4.84c-0.38-0.06-0.768-0.091-1.16-0.091c-0.87,0-1.74,0.15-2.56,0.45l-65.744,23.931
			c-0.011,0.004-0.023,0.005-0.034,0.009c-0.02,0.007-0.038,0.017-0.058,0.024l-37.465,13.638c-0.022,0.008-0.044,0.01-0.066,0.018
			c-0.037,0.014-0.072,0.032-0.109,0.046l-65.669,23.903c-1.88,0.68-3.38,2.06-4.23,3.87c-0.85,1.82-0.94,3.859-0.25,5.74
			l44.458,122.155l42.753,117.472c-5.42-1.656-11.111-2.586-16.939-2.699L149.248,57.046c-7.072-19.429-28.632-29.482-48.063-22.412
			c-0.003,0.001-0.006,0.003-0.009,0.004L4.953,69.342c-0.001,0.001-0.003,0.001-0.005,0.002c-0.005,0.002-0.01,0.003-0.016,0.005
			c-0.173,0.063-0.337,0.138-0.502,0.212c-0.063,0.028-0.129,0.051-0.191,0.081c-0.162,0.077-0.316,0.167-0.47,0.255
			c-0.063,0.036-0.13,0.067-0.192,0.106c-0.148,0.09-0.286,0.19-0.426,0.289c-0.062,0.044-0.128,0.084-0.188,0.129
			c-0.13,0.099-0.251,0.206-0.374,0.313c-0.062,0.055-0.129,0.104-0.189,0.16C2.284,71,2.178,71.117,2.07,71.23
			c-0.059,0.063-0.122,0.12-0.179,0.184c-0.102,0.115-0.195,0.238-0.29,0.359c-0.054,0.068-0.113,0.134-0.164,0.205
			c-0.086,0.118-0.162,0.242-0.241,0.365c-0.051,0.08-0.107,0.156-0.155,0.237c-0.072,0.122-0.134,0.25-0.199,0.376
			c-0.045,0.087-0.095,0.172-0.137,0.261c-0.058,0.124-0.105,0.252-0.157,0.379c-0.039,0.097-0.083,0.189-0.117,0.287
			c-0.044,0.124-0.078,0.252-0.115,0.378c-0.031,0.104-0.067,0.207-0.094,0.313c-0.031,0.124-0.052,0.252-0.077,0.378
			c-0.022,0.11-0.049,0.22-0.066,0.331c-0.02,0.128-0.027,0.258-0.04,0.387c-0.011,0.112-0.028,0.224-0.034,0.337
			c-0.007,0.132-0.002,0.264-0.002,0.396c0,0.113-0.006,0.226-0.001,0.339c0.006,0.134,0.025,0.269,0.038,0.403
			c0.011,0.111,0.017,0.223,0.033,0.335c0.02,0.133,0.052,0.266,0.079,0.399c0.023,0.113,0.04,0.227,0.068,0.34
			c0.033,0.133,0.08,0.264,0.121,0.396c0.034,0.109,0.061,0.22,0.1,0.329c0.001,0.002,0.002,0.005,0.003,0.007
			c0.001,0.005,0.002,0.009,0.004,0.014l10.261,28.19c0.077,0.212,0.183,0.405,0.276,0.606c0.073,0.156,0.132,0.322,0.215,0.471
			c0.117,0.211,0.258,0.399,0.393,0.596c0.085,0.123,0.157,0.258,0.249,0.375c0.161,0.207,0.345,0.391,0.525,0.577
			c0.084,0.087,0.158,0.186,0.246,0.269c0.203,0.191,0.426,0.357,0.647,0.523c0.08,0.061,0.152,0.132,0.234,0.188
			c0.239,0.165,0.495,0.304,0.751,0.439c0.076,0.04,0.146,0.092,0.223,0.13c0.262,0.128,0.537,0.227,0.812,0.323
			c0.08,0.028,0.155,0.068,0.236,0.094c0.282,0.089,0.572,0.146,0.864,0.202c0.08,0.015,0.158,0.043,0.239,0.055
			c0.374,0.059,0.755,0.088,1.139,0.088c0.212,0,0.425-0.01,0.639-0.027c0.044-0.004,0.087-0.013,0.131-0.017
			c0.17-0.018,0.339-0.037,0.509-0.066c0.078-0.014,0.156-0.035,0.234-0.051c0.135-0.028,0.27-0.054,0.404-0.09
			c0.143-0.037,0.284-0.086,0.426-0.133c0.067-0.021,0.134-0.039,0.2-0.063l0.008-0.003c0.004-0.001,0.008-0.003,0.012-0.004
			c0.003-0.001,0.006-0.003,0.009-0.004l89.187-32.168l105.763,290.573c-18.866,16.502-26.723,43.526-17.648,68.457
			c8.956,24.605,32.559,41.138,58.734,41.138c7.282,0,14.472-1.273,21.371-3.784c15.687-5.71,28.211-17.185,35.267-32.315
			c3.75-8.043,5.697-16.604,5.859-25.218l188.201-68.439c0,0,0.001,0,0.002-0.001h0.001c0.05-0.018,0.096-0.042,0.145-0.061
			c0.191-0.074,0.38-0.149,0.561-0.237c0.077-0.037,0.148-0.082,0.224-0.122c0.148-0.077,0.296-0.152,0.437-0.238
			c0.08-0.05,0.154-0.108,0.232-0.159c0.128-0.086,0.259-0.169,0.381-0.261c0.039-0.03,0.073-0.064,0.111-0.094
			c0.154-0.123,0.307-0.246,0.45-0.379c0.024-0.026,0.046-0.051,0.07-0.074c0.151-0.146,0.299-0.293,0.438-0.449
			c0.028-0.031,0.051-0.066,0.079-0.098c0.13-0.152,0.257-0.306,0.374-0.467c0.013-0.017,0.023-0.036,0.035-0.054
			c0.127-0.179,0.249-0.361,0.36-0.55c0.02-0.034,0.036-0.071,0.056-0.106c0.099-0.174,0.194-0.349,0.279-0.53
			c0.033-0.071,0.059-0.146,0.089-0.218c0.064-0.148,0.129-0.296,0.184-0.448c0.037-0.105,0.064-0.213,0.096-0.319
			c0.038-0.123,0.081-0.245,0.112-0.37c0.046-0.185,0.08-0.373,0.112-0.561c0.008-0.05,0.022-0.098,0.029-0.147
			C512.1,342.738,511.991,341.48,511.548,340.263z M293.217,87.127l8.545,23.49l-23.492,8.55l-8.55-23.489L293.217,87.127z
			 M337.677,209.281l8.551,23.488l-23.499,8.552l-8.548-23.489L337.677,209.281z M248.409,241.768l51.679-18.807l11.116,30.534
			c1.07,2.95,3.9,4.939,7.05,4.939c0.87,0,1.73-0.159,2.56-0.46l37.589-13.68c3.89-1.41,5.9-5.72,4.48-9.61l-11.115-30.532
			l51.687-18.811l49.605,136.287l-149.639,54.417c-2.81-3.209-5.925-6.123-9.305-8.686L248.409,241.768z M121.057,67.305
			c-0.044-0.12-0.099-0.233-0.148-0.351c-0.049-0.115-0.093-0.234-0.147-0.347c-0.049-0.103-0.107-0.197-0.16-0.296
			c-0.066-0.123-0.129-0.249-0.201-0.367c-0.05-0.081-0.107-0.155-0.16-0.234c-0.085-0.128-0.167-0.258-0.26-0.379
			c-0.048-0.064-0.103-0.121-0.153-0.184c-0.104-0.129-0.207-0.258-0.32-0.379c-0.045-0.049-0.096-0.093-0.143-0.141
			c-0.124-0.126-0.247-0.252-0.379-0.369c-0.038-0.033-0.079-0.062-0.117-0.094c-0.146-0.125-0.294-0.248-0.449-0.36
			c-0.022-0.016-0.046-0.028-0.068-0.045c-0.174-0.124-0.352-0.242-0.536-0.351c-0.014-0.008-0.029-0.015-0.043-0.022
			c-1.024-0.595-2.184-0.946-3.384-1.009c-0.011,0-0.021,0.001-0.032,0c-0.232-0.011-0.465-0.012-0.7-0.001
			c-0.043,0.002-0.086,0.01-0.129,0.013c-0.202,0.013-0.404,0.029-0.606,0.059c-0.097,0.015-0.193,0.039-0.29,0.058
			c-0.148,0.027-0.297,0.052-0.445,0.089c-0.168,0.042-0.335,0.099-0.502,0.152c-0.074,0.024-0.149,0.042-0.223,0.068l-0.01,0.004
			c-0.003,0.001-0.007,0.002-0.011,0.003c-0.003,0.001-0.006,0.003-0.009,0.004L22.245,94.994l-5.131-14.096l89.176-32.164
			c0.002-0.001,0.003-0.002,0.005-0.002c0.005-0.002,0.01-0.003,0.016-0.005c11.66-4.243,24.595,1.789,28.838,13.448
			l107.034,294.077c-2.43,0.568-4.835,1.273-7.204,2.136c-2.387,0.869-4.677,1.884-6.889,3.004L121.057,67.305z M299.407,437.192
			c-5.362,11.499-14.88,20.221-26.802,24.56c-5.25,1.911-10.715,2.88-16.241,2.88c-19.893,0-37.832-12.566-44.638-31.269
			c-8.958-24.61,3.777-51.921,28.388-60.88c5.25-1.911,10.714-2.88,16.241-2.88c19.892,0,37.832,12.566,44.638,31.27
			C305.333,412.795,304.77,425.694,299.407,437.192z M317.221,402.95c-0.57-2.424-1.268-4.83-2.133-7.206
			c-0.864-2.375-1.869-4.673-2.995-6.891l177.662-64.606l5.131,14.096L317.221,402.95z"/>
	</g>
</g>
<g>
</g>
<g>
</g>
<g>
</g>
<g>
</g>
<g>
</g>
<g>
</g>
<g>
</g>
<g>
</g>
<g>
</g>
<g>
</g>
<g>
</g>
<g>
</g>
<g>
</g>
<g>
</g>
<g>
</g>
</svg>
