<?xml version="1.0" encoding="iso-8859-1"?>
<!-- Generator: Adobe Illustrator 19.0.0, SVG Export Plug-In . SVG Version: 6.00 Build 0)  -->
<svg version="1.1" id="Capa_1" xmlns="http://www.w3.org/2000/svg" xmlns:xlink="http://www.w3.org/1999/xlink" x="0px" y="0px"
	 viewBox="0 0 496 496" style="enable-background:new 0 0 496 496;" xml:space="preserve">
<polyline style="fill:#397373;" points="120,40 120,8 248,8 248,40 "/>
<path d="M256,40h-16V16H128v24h-16V8c0-4.8,3.2-8,8-8h128c4.8,0,8,3.2,8,8V40z"/>
<path style="fill:#6595BF;" d="M312,488V98.4c0-16.8-6.4-33.6-18.4-45.6L280,40l-13.6,13.6c-12,12-18.4,28-18.4,45.6V488H312z"/>
<path d="M312,496h-64c-4.8,0-8-3.2-8-8V98.4c0-19.2,7.2-37.6,20.8-51.2l13.6-13.6c3.2-3.2,8-3.2,11.2,0l13.6,13.6
	c13.6,13.6,20.8,32,20.8,51.2V488C320,492.8,316.8,496,312,496z M256,480h48V98.4c0-15.2-5.6-28.8-16-39.2l-8-8l-8,8
	c-10.4,10.4-16.8,24.8-16,39.2V480z"/>
<path style="fill:#9AC7D9;" d="M56,200V98.4c0-16.8,6.4-33.6,18.4-45.6L88,40h192l-13.6,13.6c-12,12-18.4,28-18.4,45.6V200"/>
<path d="M256,200h-16V98.4c0-19.2,7.2-36.8,20.8-50.4H91.2L80,59.2C69.6,69.6,64,84,64,98.4V200H48V98.4c0-19.2,7.2-37.6,20.8-51.2
	l13.6-13.6C84,32.8,85.6,32,88,32h192c4.8,0,8,3.2,8,8c0,2.4-0.8,4-2.4,5.6L272,59.2c-10.4,10.4-16.8,24.8-16,39.2V200z"/>
<path style="fill:#D4A663;" d="M280,352v-64.8c20-11.2,32-24.8,32-39.2c0-35.2-68-64-152-64S8,212.8,8,248c0,14.4,12,28,32,39.2V488
	h240v-56"/>
<path d="M280,496H40c-4.8,0-8-3.2-8-8V292c-20.8-12.8-32-28-32-44c0-40,70.4-72,160-72s160,32,160,72c0,16-11.2,31.2-32,44v60h-16
	v-64.8c0-3.2,1.6-5.6,4-7.2c17.6-9.6,28-20.8,28-32c0-26.4-59.2-56-144-56S16,221.6,16,248c0,11.2,9.6,22.4,28,32c2.4,1.6,4,4,4,7.2
	V480h224v-48h16v56C288,492.8,284.8,496,280,496z"/>
<rect x="72" y="320" width="16" height="16"/>
<rect x="104" y="352" width="16" height="16"/>
<rect x="136" y="320" width="16" height="16"/>
<rect x="168" y="352" width="16" height="16"/>
<rect x="200" y="320" width="16" height="16"/>
<rect x="104" y="288" width="16" height="16"/>
<rect x="168" y="288" width="16" height="16"/>
<rect x="232" y="288" width="16" height="16"/>
<rect x="72" y="256" width="16" height="16"/>
<rect x="136" y="256" width="16" height="16"/>
<rect x="200" y="256" width="16" height="16"/>
<rect x="232" y="352" width="16" height="16"/>
<rect x="72" y="384" width="16" height="16"/>
<rect x="104" y="416" width="16" height="16"/>
<rect x="136" y="384" width="16" height="16"/>
<rect x="168" y="416" width="16" height="16"/>
<rect x="200" y="384" width="16" height="16"/>
<rect x="232" y="416" width="16" height="16"/>
<path style="fill:#BB7827;" d="M440,328.8c35.2,40,31.2,100.8-8.8,135.2s-100,31.2-135.2-8.8s-31.2-100,8.8-135.2
	c36.8-32,91.2-32,127.2,0.8"/>
<path d="M368,496c-57.6,0-104-46.4-104-104s46.4-104,104-104c25.6,0,50.4,9.6,69.6,26.4l-10.4,12c-36-32.8-92-29.6-124,7.2
	s-29.6,92,7.2,124s92,29.6,124-7.2c29.6-33.6,29.6-83.2,0.8-116.8l12-10.4c38.4,43.2,33.6,108.8-8.8,146.4
	C417.6,486.4,393.6,496,368,496z"/>
<path d="M440,376h-7.2c-12.8,0-24.8-4.8-33.6-14.4l-0.8-0.8c-8.8-8.8-14.4-21.6-14.4-33.6V320h16v7.2c0,8.8,3.2,16.8,9.6,22.4
	l0.8,0.8c5.6,6.4,13.6,9.6,22.4,9.6h7.2V376z"/>
<path style="fill:#735451;" d="M408,352l28.8-38.4c12-16,31.2-25.6,51.2-25.6l0,0v32h-0.8c-15.2,0-30.4,4-44,11.2L408,352z"/>
<path d="M408,360c-4.8,0-8-3.2-8-8c0-1.6,0.8-3.2,1.6-4.8l28.8-38.4C444,290.4,465.6,280,488,280c4.8,0,8,3.2,8,8v32
	c0,4.8-3.2,8-8,8c-14.4,0-28,3.2-40,10.4l-36,20.8C410.4,360,409.6,360,408,360z M480,296.8c-14.4,2.4-28,9.6-36.8,21.6l-5.6,7.2
	l2.4-1.6c12-7.2,26.4-11.2,40-12V296.8z"/>
<rect x="40" y="448" width="80" height="16"/>
<rect x="200" y="448" width="80" height="16"/>
<rect x="56" y="144" width="192" height="16"/>
<rect x="56" y="112" width="192" height="16"/>
<path style="fill:#C1272D;" d="M408,136l-70.4-70.4c-6.4-6.4-9.6-14.4-9.6-23.2V40c0-17.6,14.4-32,32-32h10.4
	c8.8,0,16.8,3.2,22.4,9.6L408,32l14.4-14.4c6.4-6.4,14.4-9.6,23.2-9.6H456c17.6,0,32,14.4,32,32v2.4c0,8.8-3.2,16.8-9.6,22.4
	L408,136z"/>
<path d="M408,144c-2.4,0-4-0.8-5.6-2.4L332,71.2c-8-8-12-17.6-12-28.8V40c0-22.4,17.6-40,40-40h10.4c10.4,0,20.8,4,28,12l9.6,8.8
	l8.8-8.8c8-8,17.6-12,28.8-12H456c22.4,0,40,17.6,40,40v2.4c0,10.4-4,20.8-12,28l-70.4,70.4C412,143.2,410.4,144,408,144z M360,16
	c-13.6,0-24,10.4-24,24v2.4c0,6.4,2.4,12.8,7.2,16.8L408,124l64.8-64.8c4.8-4,7.2-10.4,7.2-16.8V40c0-13.6-10.4-24-24-24h-10.4
	c-6.4,0-12.8,2.4-16.8,7.2l-14.4,14.4c-3.2,3.2-8,3.2-11.2,0l-14.4-14.4c-5.6-4.8-12-7.2-18.4-7.2H360z"/>
<g>
</g>
<g>
</g>
<g>
</g>
<g>
</g>
<g>
</g>
<g>
</g>
<g>
</g>
<g>
</g>
<g>
</g>
<g>
</g>
<g>
</g>
<g>
</g>
<g>
</g>
<g>
</g>
<g>
</g>
</svg>
