<?xml version="1.0" encoding="iso-8859-1"?>
<!-- Generator: Adobe Illustrator 19.0.0, SVG Export Plug-In . SVG Version: 6.00 Build 0)  -->
<svg version="1.1" id="Capa_1" xmlns="http://www.w3.org/2000/svg" xmlns:xlink="http://www.w3.org/1999/xlink" x="0px" y="0px"
	 viewBox="0 0 471.6 471.6" style="enable-background:new 0 0 471.6 471.6;" xml:space="preserve">
<g>
	<rect x="75.8" y="112" style="fill:#F9B659;" width="320" height="128"/>
	<path style="fill:#6B968B;" d="M235.8,192L62.2,242.632c-8.483,2.474-13.354,11.357-10.879,19.84
		c0.268,0.92,0.619,1.814,1.047,2.672l71.2,142.4c10.578,0.093,20.75-4.066,28.232-11.544c15.464-15.463,40.536-15.463,56,0
		s40.536,15.463,56,0s40.536-15.463,56,0c7.471,7.483,17.634,11.654,28.208,11.576l71.2-142.4
		c3.969-7.895,0.786-17.513-7.109-21.482c-0.866-0.435-1.769-0.791-2.699-1.062L235.8,192z"/>
	<rect x="211.8" y="64" style="fill:#CCCCCC;" width="48" height="48"/>
	<g>
		<path style="fill:#F9B659;" d="M187.8,32h96c8.837,0,16,7.163,16,16l0,0c0,8.837-7.163,16-16,16h-96c-8.837,0-16-7.163-16-16l0,0
			C171.8,39.163,178.963,32,187.8,32z"/>
		<path style="fill:#F9B659;" d="M219.8,40c-4.418,0-8-3.582-8-8V8c0-4.418,3.582-8,8-8s8,3.582,8,8v24
			C227.8,36.418,224.218,40,219.8,40z"/>
		<path style="fill:#F9B659;" d="M251.8,40c-4.418,0-8-3.582-8-8V8c0-4.418,3.582-8,8-8c4.418,0,8,3.582,8,8v24
			C259.8,36.418,256.218,40,251.8,40z"/>
	</g>
</g>
<g>
	<g>
		<path style="fill:#C4DEED;" d="M315.8,360c-4.418,0-8-3.582-8-8v-48c0-4.418,3.582-8,8-8s8,3.582,8,8v48
			C323.8,356.418,320.218,360,315.8,360z"/>
		<path style="fill:#C4DEED;" d="M315.8,344c-17.166,0.507-31.493-12.999-32-30.165c-0.018-0.612-0.018-1.224,0-1.835
			c-0.013-4.418,3.558-8.011,7.976-8.024c4.418-0.013,8.011,3.558,8.024,7.976c-0.013,8.837,7.139,16.011,15.976,16.024
			c8.837,0.013,16.011-7.139,16.024-15.976c0-4.418,3.582-8,8-8s8,3.582,8,8c0.507,17.166-12.999,31.493-30.165,32
			C317.024,344.018,316.412,344.018,315.8,344z"/>
		<path style="fill:#C4DEED;" d="M315.8,280c-4.418,0-8-3.582-8-8v-56c0-4.418,3.582-8,8-8s8,3.582,8,8v56
			C323.8,276.418,320.218,280,315.8,280z"/>
	</g>
	<g>
		<path style="fill:#CCCCCC;" d="M459.8,432c-2.122,0-4.156-0.844-5.656-2.344l-8-8c-3.07-3.178-2.982-8.242,0.196-11.312
			c3.1-2.995,8.016-2.995,11.116,0l8,8c3.124,3.125,3.123,8.19-0.002,11.314C463.955,431.157,461.921,432,459.8,432z"/>
		<path style="fill:#CCCCCC;" d="M11.8,432c-4.418-0.001-7.999-3.583-7.998-8.002c0-2.121,0.843-4.154,2.342-5.654l28-28
			c18.584-18.588,48.718-18.591,67.305-0.007c0.002,0.002,0.004,0.004,0.007,0.007c12.505,11.937,32.183,11.937,44.688,0
			c18.584-18.588,48.718-18.591,67.305-0.007c0.002,0.002,0.005,0.004,0.007,0.007c12.505,11.937,32.183,11.937,44.688,0
			c18.584-18.588,48.718-18.591,67.305-0.007c0.002,0.002,0.005,0.005,0.007,0.007c12.505,11.937,32.183,11.937,44.688,0
			c18.584-18.588,48.718-18.591,67.305-0.007c0.002,0.002,0.005,0.005,0.007,0.007c3.07,3.178,2.982,8.242-0.196,11.312
			c-3.1,2.995-8.016,2.995-11.116,0c-12.505-11.937-32.183-11.937-44.688,0c-18.584,18.588-48.718,18.591-67.305,0.007
			c-0.002-0.002-0.005-0.005-0.007-0.007c-12.505-11.937-32.183-11.937-44.688,0c-18.584,18.588-48.718,18.591-67.305,0.007
			c-0.002-0.002-0.005-0.004-0.007-0.007c-12.505-11.937-32.183-11.937-44.688,0c-18.584,18.588-48.718,18.591-67.305,0.007
			c-0.002-0.002-0.004-0.004-0.007-0.007c-12.505-11.937-32.183-11.937-44.688,0l-28,28C15.956,431.156,13.922,432,11.8,432z"/>
	</g>
	<g>
		<path style="fill:#294F61;" d="M363.8,384c-4.418-0.002-7.998-3.586-7.996-8.004c0.001-1.24,0.289-2.463,0.844-3.572
			L412.072,261.6c1.976-3.952,0.373-8.757-3.579-10.733c-0.428-0.214-0.874-0.389-1.333-0.523L235.8,200.336L64.448,250.312
			c-4.244,1.228-6.69,5.663-5.462,9.908c0.138,0.476,0.319,0.938,0.542,1.38L115,372.424c1.975,3.954,0.37,8.761-3.584,10.736
			c-3.954,1.975-8.761,0.37-10.736-3.584L45.216,268.728c-5.928-11.855-1.124-26.272,10.732-32.2c1.29-0.645,2.636-1.173,4.02-1.576
			l173.6-50.632c1.462-0.432,3.018-0.432,4.48,0l173.6,50.632c12.725,3.71,20.033,17.033,16.324,29.758
			c-0.403,1.381-0.929,2.723-1.572,4.01L371,379.576C369.638,382.301,366.847,384.017,363.8,384z"/>
		<path style="fill:#294F61;" d="M235.8,384c-4.418,0-8-3.582-8-8V256c0-4.418,3.582-8,8-8s8,3.582,8,8v120
			C243.8,380.418,240.218,384,235.8,384z"/>
		<path style="fill:#294F61;" d="M235.8,232c-4.418,0-8-3.582-8-8v-32c0-4.418,3.582-8,8-8s8,3.582,8,8v32
			C243.8,228.418,240.218,232,235.8,232z"/>
		<path style="fill:#294F61;" d="M283.8,72h-96c-13.255,0-24-10.745-24-24s10.745-24,24-24h8c4.418,0,8,3.582,8,8s-3.582,8-8,8h-8
			c-4.418,0-8,3.582-8,8s3.582,8,8,8h96c4.418,0,8-3.582,8-8s-3.582-8-8-8h-32c-4.418,0-8-3.582-8-8V8c0-4.418,3.582-8,8-8
			c4.418,0,8,3.582,8,8v16h24c13.255,0,24,10.745,24,24S297.055,72,283.8,72z"/>
		<path style="fill:#294F61;" d="M259.8,120h-48c-4.418,0-8-3.582-8-8V64c0-4.418,3.582-8,8-8h48c4.418,0,8,3.582,8,8v48
			C267.8,116.418,264.218,120,259.8,120z M219.8,104h32V72h-32V104z"/>
		<path style="fill:#294F61;" d="M395.8,240c-4.418,0-8-3.582-8-8V128c0-4.418-3.582-8-8-8h-8c-4.418,0-8-3.582-8-8
			c0-4.418,3.582-8,8-8h8c13.255,0,24,10.745,24,24v104C403.8,236.418,400.218,240,395.8,240z"/>
		<path style="fill:#294F61;" d="M75.8,240c-4.418,0-8-3.582-8-8V128c0-13.255,10.745-24,24-24h248c4.418,0,8,3.582,8,8
			c0,4.418-3.582,8-8,8h-248c-4.418,0-8,3.582-8,8v104C83.8,236.418,80.218,240,75.8,240z"/>
		<path style="fill:#294F61;" d="M219.8,40c-4.418,0-8-3.582-8-8V8c0-4.418,3.582-8,8-8s8,3.582,8,8v24
			C227.8,36.418,224.218,40,219.8,40z"/>
	</g>
	<g>
		<path style="fill:#F9CD74;" d="M235.8,168c-4.418,0-8-3.582-8-8v-16c0-4.418,3.582-8,8-8s8,3.582,8,8v16
			C243.8,164.418,240.218,168,235.8,168z"/>
		<path style="fill:#F9CD74;" d="M275.8,184c-4.418,0-8-3.582-8-8v-32c0-4.418,3.582-8,8-8s8,3.582,8,8v32
			C283.8,180.418,280.218,184,275.8,184z"/>
		<path style="fill:#F9CD74;" d="M315.8,192c-4.418,0-8-3.582-8-8v-40c0-4.418,3.582-8,8-8s8,3.582,8,8v40
			C323.8,188.418,320.218,192,315.8,192z"/>
		<path style="fill:#F9CD74;" d="M355.8,200c-4.418,0-8-3.582-8-8v-48c0-4.418,3.582-8,8-8s8,3.582,8,8v48
			C363.8,196.418,360.218,200,355.8,200z"/>
		<path style="fill:#F9CD74;" d="M195.8,184c-4.418,0-8-3.582-8-8v-32c0-4.418,3.582-8,8-8s8,3.582,8,8v32
			C203.8,180.418,200.218,184,195.8,184z"/>
		<path style="fill:#F9CD74;" d="M155.8,192c-4.418,0-8-3.582-8-8v-40c0-4.418,3.582-8,8-8s8,3.582,8,8v40
			C163.8,188.418,160.218,192,155.8,192z"/>
		<path style="fill:#F9CD74;" d="M115.8,200c-4.418,0-8-3.582-8-8v-48c0-4.418,3.582-8,8-8s8,3.582,8,8v48
			C123.8,196.418,120.218,200,115.8,200z"/>
	</g>
	<g>
		<path style="fill:#CCCCCC;" d="M11.8,471.6c-4.418-0.001-7.999-3.583-7.998-8.002c0-2.121,0.843-4.154,2.342-5.654l8-8
			c3.178-3.07,8.242-2.982,11.312,0.196c2.994,3.1,2.994,8.016,0,11.116l-8,8C15.956,470.756,13.922,471.6,11.8,471.6z"/>
		<path style="fill:#CCCCCC;" d="M459.8,471.6c-2.122,0-4.156-0.844-5.656-2.344l-28-28c-12.505-11.937-32.183-11.937-44.688,0
			c-18.59,18.582-48.722,18.582-67.312,0c-12.505-11.937-32.183-11.937-44.688,0c-18.59,18.581-48.722,18.581-67.312,0
			c-12.505-11.937-32.183-11.937-44.688,0c-18.59,18.581-48.722,18.581-67.312,0c-12.505-11.937-32.183-11.937-44.688,0
			c-3.07,3.178-8.134,3.266-11.312,0.196c-3.178-3.07-3.266-8.134-0.196-11.312c0.064-0.067,0.13-0.132,0.196-0.196
			c18.584-18.588,48.718-18.591,67.305-0.007c0.002,0.002,0.005,0.004,0.007,0.007c12.505,11.937,32.183,11.937,44.688,0
			c18.584-18.588,48.718-18.591,67.305-0.007c0.002,0.002,0.005,0.004,0.007,0.007c12.505,11.937,32.183,11.937,44.688,0
			c18.584-18.588,48.718-18.591,67.305-0.007c0.002,0.002,0.005,0.005,0.007,0.007c12.505,11.937,32.183,11.937,44.688,0
			c18.584-18.588,48.718-18.591,67.305-0.007c0.002,0.002,0.005,0.005,0.007,0.007l28,28c3.124,3.125,3.123,8.19-0.002,11.314
			C463.955,470.757,461.921,471.6,459.8,471.6z"/>
	</g>
</g>
<g>
</g>
<g>
</g>
<g>
</g>
<g>
</g>
<g>
</g>
<g>
</g>
<g>
</g>
<g>
</g>
<g>
</g>
<g>
</g>
<g>
</g>
<g>
</g>
<g>
</g>
<g>
</g>
<g>
</g>
</svg>
