<?xml version="1.0" encoding="iso-8859-1"?>
<!-- Generator: Adobe Illustrator 19.0.0, SVG Export Plug-In . SVG Version: 6.00 Build 0)  -->
<svg version="1.1" id="Capa_1" xmlns="http://www.w3.org/2000/svg" xmlns:xlink="http://www.w3.org/1999/xlink" x="0px" y="0px"
	 viewBox="0 0 511.998 511.998" style="enable-background:new 0 0 511.998 511.998;" xml:space="preserve">
<path style="fill:#CCD1D9;" d="M414.59,256.028c49.9,0.07,48.73,50,88.7,50c-2.649,30.88-8.8,80-8.8,80H81.004l7.75-80.01H364.5
	l4.351-49.99h45.64C414.521,256.028,414.56,256.028,414.59,256.028z"/>
<path style="fill:#AAB2BC;" d="M474.217,293.654l-9.729,92.374h30.003c0,0,6.15-49.12,8.8-80
	C490.315,306.028,481.676,300.763,474.217,293.654L474.217,293.654z"/>
<g>
	<path style="fill:#656D78;" d="M171.004,336.418c27.4,0,49.61,22.21,49.61,49.61c0,27.39-22.21,49.6-49.61,49.6
		c-27.39,0-49.6-22.21-49.6-49.6C121.404,358.628,143.614,336.418,171.004,336.418z"/>
	<path style="fill:#656D78;" d="M404.49,336.418c27.4,0,49.61,22.21,49.61,49.61c0,27.39-22.21,49.6-49.61,49.6
		c-27.39,0-49.6-22.21-49.6-49.6C354.891,358.628,377.101,336.418,404.49,336.418z"/>
</g>
<g>
	<path style="fill:#CCD1D9;" d="M171.004,366.028c11.05,0,20,8.95,20,20c0,11.04-8.95,20-20,20s-20-8.96-20-20
		C151.004,374.978,159.954,366.028,171.004,366.028z"/>
	<path style="fill:#CCD1D9;" d="M404.49,366.028c11.05,0,20,8.95,20,20c0,11.04-8.95,20-20,20c-11.04,0-20-8.96-20-20
		C384.49,374.978,393.45,366.028,404.49,366.028z"/>
</g>
<path style="fill:#5D9CEC;" d="M419.8,196.188c-1.75-0.11-3.52-0.16-5.3-0.16h-40.41h-0.01l-5.23,60h45.64c0.03,0,0.07,0,0.1,0
	c49.9,0.07,48.73,50,88.7,50c0.74-8.53,1.21-15.67,1.21-20C504.5,238.058,467.07,198.918,419.8,196.188z"/>
<path style="fill:#4A89DC;" d="M419.8,196.188c-1.75-0.11-3.52-0.16-5.3-0.16h-30.003c1.78,0,3.55,0.05,5.3,0.16
	c47.271,2.73,84.7,41.87,84.7,89.84c0,1.992-0.101,4.583-0.28,7.626c7.459,7.109,16.098,12.374,29.073,12.374
	c0.74-8.53,1.21-15.67,1.21-20C504.5,238.058,467.07,198.918,419.8,196.188z"/>
<polygon style="fill:#ED5565;" points="105.225,136.028 111.004,76.368 384.5,76.368 374.08,196.028 368.851,256.028 364.5,306.018 
	88.754,306.018 94.564,246.028 "/>
<polygon style="fill:#DA4453;" points="354.497,76.368 344.077,196.028 338.848,256.028 334.497,306.018 364.5,306.018 
	368.851,256.028 374.08,196.028 384.5,76.368 "/>
<path d="M500.622,390.344c0.034-0.049,0.072-0.095,0.105-0.145c0.122-0.183,0.237-0.371,0.343-0.565
	c0.008-0.012,0.016-0.023,0.021-0.036c0.113-0.208,0.217-0.421,0.31-0.641c0.026-0.063,0.046-0.128,0.071-0.191
	c0.061-0.155,0.121-0.31,0.172-0.471c0.033-0.104,0.057-0.211,0.086-0.316c0.033-0.125,0.068-0.249,0.096-0.376
	c0.025-0.113,0.041-0.229,0.06-0.344c0.017-0.101,0.039-0.2,0.052-0.303c0.318-2.548,6.191-49.667,8.814-80.135
	c0.003-0.029,0.004-0.059,0.007-0.088c0.755-8.783,1.239-16.179,1.239-20.707c0-53.762-43.738-97.5-97.5-97.5h-32.234l9.712-111.509
	c0.018-0.202,0.021-0.401,0.022-0.6c0-0.017,0.002-0.033,0.002-0.05c0-0.003,0-0.005,0-0.008c0-3.035-1.831-5.71-4.522-6.873
	c-0.023-0.01-0.045-0.022-0.068-0.032c-0.167-0.07-0.34-0.13-0.514-0.188c-0.065-0.021-0.127-0.047-0.192-0.067
	c-0.142-0.043-0.288-0.077-0.433-0.112c-0.102-0.024-0.2-0.053-0.303-0.073c-0.127-0.025-0.259-0.041-0.389-0.06
	c-0.122-0.018-0.242-0.039-0.365-0.05c-0.021-0.002-0.04-0.006-0.061-0.008c-0.132-0.012-0.262-0.01-0.393-0.015
	c-0.088-0.003-0.174-0.013-0.262-0.013h-0.094c-0.008,0-0.016,0-0.023,0H231.01c-4.14,0-7.5,3.36-7.5,7.5c0,4.13,3.36,7.5,7.5,7.5
	h145.313l-14.926,171.375c-0.002,0.013-0.002,0.026-0.004,0.039l-3.766,43.241H97.018l4.359-44.998h49.621
	c4.143,0,7.5-3.358,7.5-7.5s-3.357-7.5-7.5-7.5h-48.167l9.204-94.995h78.975c4.143,0,7.5-3.358,7.5-7.5s-3.357-7.5-7.5-7.5h-77.521
	l4.328-44.662h83.193c4.13,0,7.5-3.37,7.5-7.5c0-4.14-3.37-7.5-7.5-7.5h-90c-0.004,0-0.007,0.001-0.011,0.001
	c-3.523-0.001-6.579,2.479-7.318,5.917c-0.005,0.025-0.014,0.049-0.019,0.074c-0.038,0.187-0.063,0.378-0.088,0.57
	c-0.007,0.061-0.02,0.119-0.026,0.18c-0.001,0.012-0.004,0.023-0.005,0.035l-5.124,52.885H7.5c-4.143,0-7.5,3.358-7.5,7.5
	s3.357,7.5,7.5,7.5h89.465l-9.204,94.995H61.002c-4.143,0-7.5,3.358-7.5,7.5s3.357,7.5,7.5,7.5h25.306l-5.012,51.721
	c-0.001,0.008-0.001,0.016-0.002,0.023l-7.749,79.979c-0.001,0.009-0.002,0.019-0.003,0.027l-0.003,0.029
	c-0.01,0.104-0.009,0.206-0.015,0.31c-0.007,0.138-0.021,0.273-0.021,0.413c0,0.006,0.001,0.012,0.001,0.019
	c0,0.193,0.014,0.383,0.028,0.573c0.006,0.061,0.004,0.123,0.011,0.183c0.02,0.194,0.053,0.385,0.088,0.575
	c0.01,0.056,0.015,0.113,0.026,0.168c0.029,0.144,0.07,0.283,0.108,0.424c0.026,0.099,0.047,0.2,0.077,0.297
	c0.009,0.027,0.021,0.053,0.029,0.081c0.363,1.116,0.979,2.118,1.783,2.936c0.015,0.015,0.027,0.032,0.042,0.046
	c0.08,0.08,0.167,0.152,0.251,0.228c0.517,0.474,1.101,0.876,1.74,1.191c0.133,0.066,0.264,0.135,0.4,0.192
	c0.041,0.018,0.085,0.03,0.127,0.046c0.188,0.075,0.377,0.147,0.572,0.208c0.018,0.005,0.035,0.008,0.053,0.014
	c0.222,0.066,0.446,0.124,0.675,0.171c0.03,0.006,0.061,0.008,0.09,0.014c0.218,0.041,0.437,0.076,0.66,0.098
	c0.005,0,0.009,0.001,0.014,0.002c0.246,0.024,0.49,0.036,0.732,0.036c0.003,0,0.007-0.001,0.011-0.001h33.388
	c3.687,27.953,27.652,49.603,56.597,49.603c28.943,0,52.908-21.65,56.595-49.603H347.9c3.688,27.953,27.652,49.603,56.596,49.603
	c28.943,0,52.91-21.65,56.598-49.603h33.396c0.005,0,0.011,0.001,0.016,0.001c0.25,0,0.496-0.015,0.74-0.039
	c0.044-0.004,0.086-0.013,0.13-0.018c0.195-0.023,0.389-0.05,0.579-0.088c0.082-0.016,0.161-0.038,0.242-0.057
	c0.147-0.034,0.295-0.07,0.439-0.113c0.098-0.029,0.193-0.063,0.289-0.096c0.123-0.042,0.246-0.086,0.367-0.135
	c0.104-0.041,0.203-0.086,0.304-0.131c0.11-0.051,0.22-0.103,0.327-0.158c0.102-0.052,0.2-0.106,0.298-0.162
	c0.103-0.06,0.205-0.122,0.306-0.186c0.094-0.06,0.188-0.121,0.278-0.185c0.102-0.071,0.199-0.146,0.298-0.222
	c0.082-0.065,0.165-0.129,0.245-0.197c0.103-0.087,0.2-0.178,0.298-0.271c0.068-0.065,0.139-0.129,0.205-0.197
	c0.104-0.106,0.203-0.218,0.302-0.331c0.053-0.061,0.108-0.12,0.159-0.182C500.422,390.625,500.522,390.485,500.622,390.344z
	 M496.998,286.027c0,2.811-0.21,6.895-0.566,11.811c-11.145-2.272-18.002-10.107-26.309-19.651
	c-10.389-11.935-23.072-26.5-47.385-29.214l3.88-44.548C466.382,210.306,496.998,244.654,496.998,286.027z M411.64,203.527
	l-3.919,44.996h-30.683l3.919-44.996H411.64z M364.5,313.522c0.004,0,0.007,0,0.011,0c0.251,0,0.5-0.014,0.746-0.039
	c0.046-0.004,0.091-0.014,0.137-0.02c0.196-0.023,0.391-0.051,0.583-0.089c0.083-0.017,0.164-0.04,0.246-0.06
	c0.15-0.036,0.3-0.071,0.446-0.115c0.1-0.03,0.195-0.066,0.292-0.1c0.126-0.044,0.252-0.087,0.374-0.137
	c0.105-0.043,0.206-0.091,0.308-0.139c0.111-0.051,0.222-0.102,0.329-0.158c0.102-0.054,0.202-0.112,0.303-0.17
	c0.103-0.06,0.205-0.121,0.305-0.185c0.097-0.063,0.189-0.129,0.282-0.195c0.099-0.07,0.195-0.142,0.291-0.217
	c0.086-0.069,0.171-0.14,0.255-0.213c0.095-0.082,0.188-0.166,0.278-0.253c0.076-0.073,0.152-0.148,0.226-0.225
	c0.09-0.094,0.177-0.191,0.263-0.29c0.067-0.078,0.133-0.156,0.197-0.236c0.083-0.105,0.162-0.213,0.24-0.322
	c0.059-0.082,0.116-0.164,0.172-0.248c0.073-0.113,0.143-0.229,0.21-0.347c0.051-0.088,0.103-0.176,0.149-0.266
	c0.063-0.118,0.117-0.238,0.174-0.359c0.044-0.097,0.089-0.192,0.129-0.292c0.049-0.118,0.09-0.239,0.133-0.36
	c0.037-0.107,0.076-0.214,0.109-0.324c0.033-0.116,0.06-0.235,0.09-0.353c0.029-0.119,0.061-0.237,0.084-0.358
	c0.023-0.118,0.037-0.238,0.055-0.358c0.018-0.124,0.039-0.246,0.051-0.372c0.002-0.018,0.006-0.035,0.007-0.053l3.759-43.15h38.762
	c22.979,0,33.343,11.906,44.314,24.512c9.053,10.401,19.16,22.006,36.34,24.837c-2.182,23.07-5.709,52.686-7.287,65.654h-26.767
	c-3.686-27.955-27.652-49.606-56.598-49.606c-28.944,0-52.91,21.652-56.596,49.606H227.604
	c-3.686-27.955-27.651-49.606-56.596-49.606s-52.912,21.652-56.598,49.606H89.266l6.299-65.004H364.5V313.522z M171.008,428.129
	c-23.217,0-42.105-18.888-42.105-42.104s18.889-42.104,42.105-42.104s42.104,18.888,42.104,42.104S194.224,428.129,171.008,428.129z
	 M404.496,428.129c-23.216,0-42.103-18.888-42.103-42.104s18.888-42.104,42.103-42.104c23.217,0,42.105,18.888,42.105,42.104
	S427.713,428.129,404.496,428.129z"/>
<path d="M171.008,358.524c-15.163,0-27.5,12.336-27.5,27.5s12.337,27.5,27.5,27.5s27.5-12.336,27.5-27.5
	C198.508,370.861,186.171,358.524,171.008,358.524z M171.008,398.524c-6.893,0-12.5-5.607-12.5-12.5s5.607-12.5,12.5-12.5
	s12.5,5.607,12.5,12.5S177.9,398.524,171.008,398.524z"/>
<path d="M404.496,358.524c-15.163,0-27.5,12.336-27.5,27.5s12.337,27.5,27.5,27.5s27.5-12.336,27.5-27.5
	C431.996,370.861,419.659,358.524,404.496,358.524z M404.496,398.524c-6.893,0-12.5-5.607-12.5-12.5s5.607-12.5,12.5-12.5
	s12.5,5.607,12.5,12.5S411.389,398.524,404.496,398.524z"/>
<path d="M78.5,196.027c0-4.142-3.357-7.5-7.5-7.5H34.334c-4.143,0-7.5,3.358-7.5,7.5s3.357,7.5,7.5,7.5H71
	C75.143,203.527,78.5,200.169,78.5,196.027z"/>
<g>
</g>
<g>
</g>
<g>
</g>
<g>
</g>
<g>
</g>
<g>
</g>
<g>
</g>
<g>
</g>
<g>
</g>
<g>
</g>
<g>
</g>
<g>
</g>
<g>
</g>
<g>
</g>
<g>
</g>
</svg>
