<?xml version="1.0" encoding="iso-8859-1"?>
<!-- Generator: Adobe Illustrator 19.0.0, SVG Export Plug-In . SVG Version: 6.00 Build 0)  -->
<svg version="1.1" id="Capa_1" xmlns="http://www.w3.org/2000/svg" xmlns:xlink="http://www.w3.org/1999/xlink" x="0px" y="0px"
	 viewBox="0 0 512 512" style="enable-background:new 0 0 512 512;" xml:space="preserve">
<g>
	<path style="fill:#86C575;" d="M399.401,201.011c12.04,3.489,26.151,5.432,40.403,2.656c37.693-7.341,62.092-44.902,62.092-44.902
		s-23.854-16.673-52.848-19.295"/>
	<path style="fill:#86C575;" d="M414.564,104.985c-2.622-28.993-19.294-52.848-19.294-52.848s-37.562,24.4-44.902,62.092
		c-2.774,14.244-0.835,28.349,2.651,40.384"/>
	<path style="fill:#86C575;" d="M397.002,188.91c11.526-3.871,23.718-10.052,33.583-19.917
		c27.154-27.154,26.393-71.938,26.393-71.938s-44.784-0.76-71.938,26.394c-10.183,10.183-16.44,22.846-20.284,34.696"/>
</g>
<path style="fill:#FCB653;" d="M338.042,276.628l36.616-24.727c22.225-15.009,29.474-44.41,16.772-68.03l0,0
	c-4.851-9.021-12.246-16.416-21.267-21.267c-23.62-12.701-53.021-5.453-68.03,16.772l-65.675,97.252H338.042z"/>
<g>
	<rect x="10" y="210.68" style="fill:#FF9B5F;" width="40.04" height="65.945"/>
	<rect x="461.86" y="210.68" style="fill:#FF9B5F;" width="40.04" height="65.945"/>
</g>
<polygon style="fill:#07C2C9;" points="82.488,48.784 82.488,10.103 197.014,10.103 197.014,48.568 221.822,115.468 
	221.822,276.628 50.037,276.628 50.037,115.683 "/>
<polygon style="fill:#006D87;" points="82.488,48.784 197.014,48.568 221.822,115.468 50.037,115.683 "/>
<rect x="175.12" y="115.52" style="fill:#07C2C9;" width="46.704" height="161.11"/>
<polygon style="fill:#006D87;" points="197.014,48.568 175.174,115.519 221.822,115.519 221.822,115.468 "/>
<rect x="50.04" y="182.85" style="fill:#FFEEE7;" width="125.08" height="93.78"/>
<rect x="10" y="379.27" style="fill:#FF9B5F;" width="492" height="122.63"/>
<path d="M373.56,449.898c-2.63,0-5.21-1.069-7.07-2.93c-0.46-0.46-0.88-0.97-1.24-1.52c-0.37-0.54-0.67-1.12-0.92-1.73
	c-0.25-0.6-0.45-1.229-0.57-1.87c-0.13-0.64-0.2-1.3-0.2-1.95c0-0.649,0.07-1.31,0.2-1.96c0.12-0.63,0.32-1.26,0.57-1.87
	c0.25-0.6,0.55-1.18,0.91-1.72c0.37-0.55,0.79-1.06,1.25-1.52s0.97-0.88,1.52-1.25c0.54-0.36,1.12-0.67,1.72-0.92
	c0.61-0.25,1.24-0.44,1.87-0.57c1.29-0.26,2.62-0.26,3.91,0c0.64,0.13,1.27,0.32,1.87,0.57c0.61,0.25,1.19,0.56,1.73,0.92
	c0.55,0.37,1.06,0.79,1.52,1.25s0.88,0.97,1.24,1.52c0.36,0.54,0.67,1.12,0.92,1.72c0.25,0.61,0.44,1.24,0.57,1.87
	c0.13,0.65,0.2,1.31,0.2,1.96s-0.07,1.311-0.2,1.95c-0.13,0.641-0.32,1.27-0.57,1.87c-0.25,0.61-0.56,1.19-0.92,1.73
	c-0.36,0.55-0.78,1.06-1.24,1.52s-0.97,0.88-1.52,1.24c-0.54,0.359-1.12,0.67-1.73,0.92c-0.6,0.25-1.23,0.439-1.87,0.57
	C374.87,449.829,374.21,449.898,373.56,449.898z"/>
<path d="M337.196,449.898H138.441c-5.523,0-10-4.478-10-10s4.477-10,10-10h198.754c5.523,0,10,4.478,10,10
	C347.196,445.421,342.719,449.898,337.196,449.898z"/>
<rect x="10" y="276.63" style="fill:#FEBB8E;" width="492" height="102.64"/>
<path d="M511.897,210.683c0-5.522-4.477-10-10-10h-28.992c22.939-14.572,36.596-35.266,37.379-36.471
	c2.937-4.52,1.761-10.556-2.658-13.643c-0.92-0.644-20.03-13.835-45.444-19.201c4.963-18.295,4.815-33.371,4.796-34.482
	c-0.091-5.39-4.439-9.737-9.829-9.829c-1.115-0.012-16.188-0.162-34.48,4.799c-5.366-25.415-18.559-44.526-19.202-45.446
	c-3.088-4.419-9.124-5.596-13.643-2.657c-1.679,1.09-41.211,27.186-49.271,68.566c-2.092,10.742-2.005,22.195,0.248,34.166
	c-18.402,1.358-35.886,10.908-46.953,27.295l-62.024,91.846V115.468c0-0.012,0-0.024-0.001-0.036c0-0.053-0.001-0.106-0.002-0.159
	c0-0.011,0-0.023-0.001-0.034c-0.001-0.062-0.004-0.123-0.006-0.185c-0.001-0.022-0.002-0.044-0.003-0.066
	c-0.002-0.05-0.005-0.101-0.008-0.151c-0.001-0.015-0.002-0.03-0.003-0.044c-0.004-0.063-0.009-0.126-0.015-0.188
	c-0.002-0.018-0.003-0.036-0.005-0.054c-0.005-0.055-0.011-0.111-0.017-0.166c-0.001-0.01-0.002-0.021-0.003-0.031
	c-0.007-0.065-0.015-0.13-0.024-0.196c-0.002-0.014-0.004-0.029-0.006-0.043c-0.008-0.058-0.017-0.117-0.025-0.175
	c-0.001-0.008-0.002-0.017-0.004-0.025c-0.011-0.067-0.022-0.134-0.034-0.201c-0.002-0.011-0.004-0.021-0.006-0.032
	c-0.011-0.059-0.022-0.117-0.033-0.175c-0.002-0.011-0.004-0.022-0.007-0.034c-0.013-0.064-0.027-0.129-0.041-0.193
	c-0.003-0.013-0.006-0.027-0.009-0.04c-0.012-0.053-0.025-0.106-0.038-0.16c-0.004-0.015-0.007-0.03-0.011-0.045
	c-0.016-0.064-0.033-0.127-0.05-0.191c-0.003-0.01-0.006-0.02-0.008-0.031c-0.015-0.054-0.03-0.108-0.046-0.161
	c-0.005-0.017-0.01-0.034-0.015-0.05c-0.019-0.063-0.038-0.125-0.058-0.188c-0.002-0.007-0.004-0.013-0.006-0.02
	c-0.018-0.056-0.036-0.111-0.055-0.167c-0.006-0.017-0.012-0.035-0.018-0.052c-0.022-0.062-0.044-0.124-0.067-0.186l-24.184-65.217
	V10.104c0-5.522-4.477-10-10-10H82.488c-5.523,0-10,4.478-10,10v36.383L41.039,111.32c-0.038,0.078-0.074,0.157-0.11,0.235
	c-0.005,0.011-0.01,0.022-0.015,0.033c-0.034,0.076-0.067,0.153-0.099,0.23c-0.005,0.011-0.01,0.023-0.014,0.035
	c-0.033,0.08-0.065,0.16-0.096,0.24c-0.002,0.005-0.004,0.01-0.006,0.015c-0.1,0.26-0.188,0.523-0.265,0.789
	c0,0.002-0.001,0.004-0.001,0.005c-0.026,0.088-0.05,0.176-0.073,0.265c-0.001,0.003-0.002,0.007-0.003,0.01
	c-0.07,0.271-0.129,0.544-0.176,0.819c0,0.001,0,0.002,0,0.003c-0.015,0.088-0.029,0.176-0.041,0.264
	c-0.001,0.009-0.003,0.018-0.004,0.026c-0.012,0.085-0.023,0.171-0.033,0.256c-0.001,0.008-0.002,0.017-0.003,0.025
	c-0.01,0.088-0.019,0.176-0.026,0.265c0,0.001,0,0.003,0,0.004c-0.007,0.088-0.014,0.176-0.019,0.264
	c0,0.007-0.001,0.014-0.001,0.021c-0.005,0.084-0.008,0.168-0.011,0.252c0,0.013-0.001,0.026-0.001,0.04
	c-0.002,0.08-0.003,0.16-0.003,0.239c0,0.009,0,0.019,0,0.029v84.999H10c-5.523,0-10,4.478-10,10v291.214c0,5.522,4.477,10,10,10
	h492c5.523,0,10-4.478,10-10L511.897,210.683z M491.897,266.628H471.86v-45.945h20.037L491.897,266.628L491.897,266.628z
	 M451.86,266.628h-81.142l9.537-6.44c16.387-11.066,25.937-28.55,27.295-46.953c6.216,1.17,12.292,1.756,18.202,1.756
	c5.471,0,10.8-0.502,15.964-1.508c3.492-0.68,6.875-1.585,10.144-2.671V266.628z M487.088,161.645
	c-8.94,10.531-26.602,27.807-49.195,32.207c-8.034,1.564-16.724,1.514-25.934-0.142c10-4.651,18.611-10.559,25.697-17.645
	c7.739-7.74,13.438-16.662,17.635-25.667C468.2,152.713,479.622,157.734,487.088,161.645z M439.986,135.24
	c-0.203,0.435-0.376,0.887-0.516,1.355c-3.47,8.908-8.543,17.914-15.956,25.327c-6.371,6.37-14.505,11.568-24.235,15.494
	c-5.457-9.427-13.235-17.206-22.662-22.662c3.925-9.729,9.12-17.861,15.495-24.235c16.287-16.288,40.505-21.274,54.224-22.798
	C445.552,114.901,443.816,124.947,439.986,135.24z M360.182,116.142c4.403-22.607,21.698-40.278,32.223-49.21
	c3.91,7.442,8.922,18.84,11.234,31.811c-9.005,4.196-17.929,9.895-25.669,17.635c-7.09,7.09-12.997,15.698-17.646,25.695
	C358.669,132.864,358.618,124.174,360.182,116.142z M306.461,190.837l28.325,28.325c1.953,1.952,4.512,2.929,7.071,2.929
	c2.559,0,5.119-0.977,7.071-2.929c3.905-3.905,3.905-10.237,0-14.143L319.3,175.39c12.886-10.178,30.915-12.16,46.128-3.979
	c7.315,3.934,13.261,9.88,17.196,17.196c10.311,19.174,4.48,42.821-13.562,55.006l-34.08,23.015h-79.704L306.461,190.837z
	 M197.619,78.96l9.836,26.525l-18.496,0.023L197.619,78.96z M211.822,125.52v141.108h-26.703V125.52H211.822z M92.488,20.104h94.526
	v18.484l-94.526,0.178C92.488,38.766,92.488,20.104,92.488,20.104z M85.537,65.412l3.221-6.64l94.467-0.178l-15.312,46.941
	l-101.901,0.128L85.537,65.412z M60.037,125.671l105.082-0.132v47.308H60.037V125.671z M60.037,192.847h105.082v73.781H60.037
	V192.847z M20,220.683h20.037v45.945H20V220.683z M20,286.628h472v82.638H20V286.628z M492,491.897H20V389.266h472V491.897z"/>
<path d="M92.88,430.581h-7.851v-7.852c0-5.522-4.477-10-10-10s-10,4.478-10,10v7.852h-7.852c-5.523,0-10,4.478-10,10s4.477,10,10,10
	h7.852v7.852c0,5.523,4.477,10,10,10s10-4.477,10-10v-7.852h7.851c5.523,0,10-4.478,10-10S98.403,430.581,92.88,430.581z"/>
<path d="M454.823,430.581h-7.852v-7.852c0-5.522-4.477-10-10-10s-10,4.478-10,10v7.852h-7.851c-5.523,0-10,4.478-10,10
	s4.477,10,10,10h7.851v7.852c0,5.523,4.477,10,10,10s10-4.477,10-10v-7.852h7.852c5.523,0,10-4.478,10-10
	S460.346,430.581,454.823,430.581z"/>
<path d="M419.12,337.946h7.851v7.852c0,5.522,4.477,10,10,10s10-4.478,10-10v-7.852h7.852c5.523,0,10-4.477,10-10
	c0-5.522-4.477-10-10-10h-7.852v-7.852c0-5.522-4.477-10-10-10s-10,4.478-10,10v7.852h-7.851c-5.523,0-10,4.478-10,10
	C409.12,333.469,413.597,337.946,419.12,337.946z"/>
<path d="M92.88,317.946h-7.851v-7.852c0-5.522-4.477-10-10-10s-10,4.478-10,10v7.852h-7.852c-5.523,0-10,4.478-10,10
	c0,5.523,4.477,10,10,10h7.852v7.852c0,5.522,4.477,10,10,10s10-4.478,10-10v-7.852h7.851c5.523,0,10-4.477,10-10
	C102.88,322.424,98.403,317.946,92.88,317.946z"/>
<path d="M138.44,338.63c-0.65,0-1.31-0.07-1.95-0.19c-0.64-0.13-1.27-0.33-1.87-0.58c-0.61-0.25-1.19-0.55-1.73-0.92
	c-0.55-0.359-1.06-0.779-1.52-1.239c-0.46-0.46-0.88-0.971-1.24-1.521c-0.36-0.54-0.67-1.12-0.92-1.729
	c-0.25-0.601-0.44-1.23-0.57-1.87c-0.13-0.641-0.2-1.3-0.2-1.95c0-0.65,0.07-1.311,0.2-1.95c0.13-0.64,0.32-1.27,0.57-1.88
	c0.25-0.6,0.56-1.18,0.92-1.72c0.36-0.55,0.78-1.061,1.24-1.521s0.97-0.88,1.52-1.24c0.54-0.359,1.12-0.67,1.73-0.92
	c0.6-0.25,1.23-0.449,1.87-0.569c1.29-0.261,2.62-0.261,3.91,0c0.63,0.12,1.26,0.319,1.87,0.569c0.6,0.25,1.18,0.561,1.72,0.92
	c0.55,0.36,1.06,0.78,1.52,1.24s0.88,0.971,1.25,1.521c0.36,0.54,0.67,1.12,0.92,1.72c0.25,0.61,0.44,1.24,0.57,1.88
	c0.12,0.64,0.19,1.3,0.19,1.95c0,0.65-0.07,1.31-0.19,1.95c-0.13,0.64-0.33,1.27-0.58,1.87c-0.25,0.609-0.55,1.189-0.91,1.729
	c-0.37,0.55-0.79,1.061-1.25,1.521s-0.97,0.88-1.52,1.239c-0.54,0.37-1.12,0.67-1.72,0.92c-0.61,0.25-1.24,0.45-1.87,0.58
	C139.75,338.56,139.09,338.63,138.44,338.63z"/>
<path d="M373.559,338.63H174.804c-5.523,0-10-4.478-10-10c0-5.523,4.477-10,10-10h198.754c5.523,0,10,4.477,10,10
	C383.559,334.152,379.082,338.63,373.559,338.63z"/>
<g>
</g>
<g>
</g>
<g>
</g>
<g>
</g>
<g>
</g>
<g>
</g>
<g>
</g>
<g>
</g>
<g>
</g>
<g>
</g>
<g>
</g>
<g>
</g>
<g>
</g>
<g>
</g>
<g>
</g>
</svg>
