<?xml version="1.0" encoding="iso-8859-1"?>
<!-- Generator: Adobe Illustrator 19.0.0, SVG Export Plug-In . SVG Version: 6.00 Build 0)  -->
<svg version="1.1" id="Layer_1" xmlns="http://www.w3.org/2000/svg" xmlns:xlink="http://www.w3.org/1999/xlink" x="0px" y="0px"
	 viewBox="0 0 330 330" style="enable-background:new 0 0 330 330;" xml:space="preserve">
<g id="XMLID_2_">
	<path id="XMLID_4_" d="M51.213,180h173.785c8.284,0,15-6.716,15-15s-6.716-15-15-15H51.213l19.394-19.393
		c5.858-5.857,5.858-15.355,0-21.213c-5.856-5.858-15.354-5.858-21.213,0L4.397,154.391c-0.348,0.347-0.676,0.71-0.988,1.09
		c-0.076,0.093-0.141,0.193-0.215,0.288c-0.229,0.291-0.454,0.583-0.66,0.891c-0.06,0.09-0.109,0.185-0.168,0.276
		c-0.206,0.322-0.408,0.647-0.59,0.986c-0.035,0.067-0.064,0.138-0.099,0.205c-0.189,0.367-0.371,0.739-0.53,1.123
		c-0.02,0.047-0.034,0.097-0.053,0.145c-0.163,0.404-0.314,0.813-0.442,1.234c-0.017,0.053-0.026,0.108-0.041,0.162
		c-0.121,0.413-0.232,0.83-0.317,1.257c-0.025,0.127-0.036,0.258-0.059,0.386c-0.062,0.354-0.124,0.708-0.159,1.069
		C0.025,163.998,0,164.498,0,165s0.025,1.002,0.076,1.498c0.035,0.366,0.099,0.723,0.16,1.08c0.022,0.124,0.033,0.251,0.058,0.374
		c0.086,0.431,0.196,0.852,0.318,1.269c0.015,0.049,0.024,0.101,0.039,0.15c0.129,0.423,0.28,0.836,0.445,1.244
		c0.018,0.044,0.031,0.091,0.05,0.135c0.16,0.387,0.343,0.761,0.534,1.13c0.033,0.065,0.061,0.133,0.095,0.198
		c0.184,0.341,0.387,0.669,0.596,0.994c0.056,0.088,0.104,0.181,0.162,0.267c0.207,0.309,0.434,0.603,0.662,0.895
		c0.073,0.094,0.138,0.193,0.213,0.285c0.313,0.379,0.641,0.743,0.988,1.09l44.997,44.997C52.322,223.536,56.161,225,60,225
		s7.678-1.464,10.606-4.394c5.858-5.858,5.858-15.355,0-21.213L51.213,180z"/>
	<path id="XMLID_5_" d="M207.299,42.299c-40.944,0-79.038,20.312-101.903,54.333c-4.62,6.875-2.792,16.195,4.083,20.816
		c6.876,4.62,16.195,2.794,20.817-4.083c17.281-25.715,46.067-41.067,77.003-41.067C258.414,72.299,300,113.884,300,165
		s-41.586,92.701-92.701,92.701c-30.845,0-59.584-15.283-76.878-40.881c-4.639-6.865-13.961-8.669-20.827-4.032
		c-6.864,4.638-8.67,13.962-4.032,20.826c22.881,33.868,60.913,54.087,101.737,54.087C274.956,287.701,330,232.658,330,165
		S274.956,42.299,207.299,42.299z"/>
</g>
<g>
</g>
<g>
</g>
<g>
</g>
<g>
</g>
<g>
</g>
<g>
</g>
<g>
</g>
<g>
</g>
<g>
</g>
<g>
</g>
<g>
</g>
<g>
</g>
<g>
</g>
<g>
</g>
<g>
</g>
</svg>
