<?xml version="1.0" encoding="iso-8859-1"?>
<!-- Generator: Adobe Illustrator 19.0.0, SVG Export Plug-In . SVG Version: 6.00 Build 0)  -->
<svg version="1.1" id="Layer_1" xmlns="http://www.w3.org/2000/svg" xmlns:xlink="http://www.w3.org/1999/xlink" x="0px" y="0px"
	 viewBox="0 0 512 512" style="enable-background:new 0 0 512 512;" xml:space="preserve">
<g>
	<g>
		<g>
			<path d="M256,131.122c36.15,0,65.561-29.41,65.561-65.561S292.15,0,256,0s-65.561,29.41-65.561,65.561
				S219.85,131.122,256,131.122z M256,24.976c22.379,0,40.585,18.207,40.585,40.585c0,22.378-18.206,40.585-40.585,40.585
				s-40.585-18.207-40.585-40.585C215.415,43.183,233.621,24.976,256,24.976z"/>
			<path d="M168.585,299.707h174.829c6.896,0,12.488-5.591,12.488-12.488V256c0-55.086-44.816-99.902-99.902-99.902
				S156.098,200.914,156.098,256v31.219C156.098,294.117,161.69,299.707,168.585,299.707z M181.073,256
				c0-41.315,33.612-74.927,74.927-74.927s74.927,33.612,74.927,74.927v18.732H181.073V256z"/>
			<path d="M499.512,324.683H12.488C5.592,324.683,0,330.274,0,337.171v162.341C0,506.409,5.592,512,12.488,512h487.024
				c6.896,0,12.488-5.591,12.488-12.488V337.171C512,330.274,506.408,324.683,499.512,324.683z M487.024,487.024H24.976V349.659
				h462.049V487.024z"/>
			<path d="M168.396,443.317c2.314,4.006,6.51,6.245,10.827,6.245c2.118,0,4.266-0.539,6.231-1.675l13.712-7.917v15.835
				c0,6.897,5.592,12.488,12.488,12.488s12.488-5.591,12.488-12.488V439.97l13.713,7.917c1.967,1.135,4.113,1.675,6.231,1.675
				c4.316,0,8.514-2.239,10.827-6.245c3.449-5.973,1.402-13.61-4.571-17.058l-13.712-7.917l13.713-7.917
				c5.973-3.448,8.02-11.085,4.571-17.058c-3.448-5.97-11.085-8.018-17.058-4.571l-13.713,7.917v-15.835
				c0-6.897-5.592-12.488-12.488-12.488c-6.896,0-12.488,5.591-12.488,12.488v15.833l-13.712-7.917
				c-5.975-3.448-13.61-1.401-17.058,4.571c-3.449,5.973-1.402,13.61,4.571,17.058l13.713,7.917l-13.713,7.917
				C166.993,429.707,164.946,437.344,168.396,443.317z"/>
			<path d="M283.236,443.317c2.314,4.006,6.51,6.245,10.827,6.245c2.118,0,4.266-0.539,6.231-1.675l13.712-7.917v15.835
				c0,6.897,5.592,12.488,12.488,12.488c6.896,0,12.488-5.591,12.488-12.488V439.97l13.712,7.917
				c1.967,1.135,4.113,1.675,6.231,1.675c4.316,0,8.513-2.239,10.827-6.245c3.449-5.973,1.402-13.61-4.571-17.058l-13.712-7.917
				l13.713-7.917c5.973-3.448,8.02-11.085,4.571-17.058c-3.448-5.973-11.085-8.018-17.058-4.571l-13.712,7.917v-15.835
				c0-6.897-5.592-12.488-12.488-12.488c-6.896,0-12.488,5.591-12.488,12.488v15.835l-13.712-7.917
				c-5.974-3.448-13.608-1.401-17.058,4.571c-3.449,5.973-1.402,13.61,4.571,17.058l13.713,7.917l-13.713,7.917
				C281.833,429.707,279.787,437.344,283.236,443.317z"/>
			<path d="M53.556,443.317c2.314,4.006,6.51,6.245,10.827,6.245c2.118,0,4.266-0.539,6.231-1.675l13.712-7.917v15.835
				c0,6.897,5.592,12.488,12.488,12.488c6.896,0,12.488-5.591,12.488-12.488V439.97l13.712,7.917
				c1.967,1.135,4.113,1.675,6.231,1.675c4.316,0,8.513-2.239,10.827-6.245c3.449-5.973,1.402-13.61-4.571-17.058l-13.712-7.917
				l13.713-7.917c5.973-3.448,8.02-11.085,4.571-17.058c-3.448-5.973-11.085-8.018-17.058-4.571l-13.712,7.917v-15.835
				c0-6.897-5.592-12.488-12.488-12.488c-6.896,0-12.488,5.591-12.488,12.488v15.835l-13.712-7.917
				c-5.974-3.448-13.609-1.401-17.058,4.571c-3.449,5.973-1.402,13.61,4.57,17.058l13.712,7.917l-13.713,7.917
				C52.154,429.707,50.107,437.344,53.556,443.317z"/>
			<path d="M403.356,468.293h51.824c6.896,0,12.488-5.591,12.488-12.488s-5.592-12.488-12.488-12.488h-51.824
				c-6.896,0-12.488,5.591-12.488,12.488S396.46,468.293,403.356,468.293z"/>
		</g>
	</g>
</g>
<g>
</g>
<g>
</g>
<g>
</g>
<g>
</g>
<g>
</g>
<g>
</g>
<g>
</g>
<g>
</g>
<g>
</g>
<g>
</g>
<g>
</g>
<g>
</g>
<g>
</g>
<g>
</g>
<g>
</g>
</svg>
