<?xml version="1.0" encoding="iso-8859-1"?>
<!-- Generator: Adobe Illustrator 19.0.0, SVG Export Plug-In . SVG Version: 6.00 Build 0)  -->
<svg version="1.1" id="Capa_1" xmlns="http://www.w3.org/2000/svg" xmlns:xlink="http://www.w3.org/1999/xlink" x="0px" y="0px"
	 viewBox="0 0 512 512" style="enable-background:new 0 0 512 512;" xml:space="preserve">
<g>
	<path style="fill:#FFCF5D;" d="M319.424,131.597l-18.496-2.688l-8.272-16.76c-2.751-5.575-10.7-5.575-13.451,0l-8.272,16.76
		l-18.496,2.688c-6.152,0.894-8.608,8.454-4.157,12.792l13.384,13.046l-3.159,18.421c-1.051,6.126,5.38,10.799,10.882,7.906
		l13.053-6.862c2.185-1.149,4.795-1.149,6.98,0l13.053,6.862c5.502,2.893,11.933-1.78,10.882-7.906l-3.159-18.421l13.384-13.046
		C328.031,140.05,325.575,132.49,319.424,131.597z"/>
	<path style="fill:#FFCF5D;" d="M397.796,237.889l-23.165-3.366l-10.36-20.991c-3.445-6.981-13.401-6.981-16.846,0l-10.36,20.991
		l-23.165,3.366c-7.704,1.12-10.781,10.588-5.206,16.022l16.762,16.339l-3.957,23.071c-1.316,7.673,6.738,13.525,13.629,9.902
		l16.348-8.595c2.736-1.438,6.006-1.438,8.742,0l16.348,8.595c6.891,3.623,14.945-2.229,13.629-9.902l-3.957-23.071L403,253.911
		C408.577,248.476,405.5,239.008,397.796,237.889z"/>
</g>
<path style="fill:#5C87BD;" d="M489.5,470.243H236.505c-8.284,0-15-6.716-15-15V270.25H504.5v184.993
	C504.5,463.527,497.784,470.243,489.5,470.243z"/>
<path style="fill:#456EA2;" d="M474.501,447.743H221.506v7.5c0,8.284,6.716,15,15,15H489.5c8.284,0,15-6.716,15-15V270.25H482
	v169.994C482,444.385,478.642,447.743,474.501,447.743z"/>
<path style="fill:#FF5368;" d="M118.626,219.816L98.279,295.75l-75.935,20.347c-14.872,3.985-19.852,22.574-8.966,33.46
	c16.459,16.459,40.419,40.419,57.034,57.034l138.706-138.706c-16.454-16.454-40.417-40.417-57.034-57.034
	C141.2,199.964,122.61,204.945,118.626,219.816z"/>
<g>
	<path style="fill:#D9435B;" d="M144.61,236.614c-4.001-1.073-8.114,1.302-9.185,5.303L116.2,313.669l-71.752,19.226
		c-4.002,1.071-6.376,5.184-5.303,9.185c1.072,4.001,5.184,6.375,9.185,5.303l75.935-20.347c0.007-0.002,0.013-0.005,0.021-0.007
		c0.235-0.064,0.462-0.149,0.69-0.235c0.085-0.032,0.175-0.055,0.257-0.09c0.104-0.043,0.201-0.101,0.303-0.149
		c0.786-0.373,1.494-0.86,2.088-1.454c0.002-0.002,0.003-0.003,0.005-0.005s0.003-0.003,0.005-0.005
		c0.594-0.594,1.081-1.302,1.454-2.088c0.048-0.102,0.106-0.198,0.149-0.303c0.035-0.082,0.058-0.173,0.09-0.257
		c0.086-0.227,0.171-0.454,0.235-0.69c0.002-0.007,0.005-0.013,0.007-0.021l20.347-75.935
		C150.985,241.798,148.611,237.686,144.61,236.614z"/>
	<circle style="fill:#D9435B;" cx="111.008" cy="308.484" r="29.999"/>
</g>
<path style="fill:#5C87BD;" d="M217.547,213.496L16.025,415.017c-2.929,2.929-2.929,7.678,0,10.607l42.425,42.425
	c2.929,2.929,7.678,2.929,10.607,0l201.521-201.521c2.929-2.929,2.929-7.678,0-10.607l-42.425-42.425
	C225.223,210.567,220.476,210.567,217.547,213.496z"/>
<path style="fill:#456EA2;" d="M217.547,213.496l-10.607,10.607l31.819,31.819c2.929,2.929,2.929,7.678,0,10.607L47.844,457.443
	l10.607,10.607c2.929,2.929,7.678,2.929,10.607,0l201.521-201.521c2.929-2.929,2.929-7.678,0-10.607l-42.426-42.426
	C225.223,210.567,220.476,210.567,217.547,213.496z"/>
<path d="M337.012,58.049l2.764,0.907l-1.74,2.417c-3.585,4.981,0.027,11.883,6.081,11.883c4.371,0,6.072-3.089,7.732-5.396
	l1.639,2.276c2.418,3.36,7.104,4.127,10.469,1.705c3.361-2.42,4.125-7.106,1.705-10.469l-1.74-2.417l2.765-0.907
	c3.936-1.291,6.08-5.528,4.789-9.464c-1.291-3.937-5.53-6.08-9.464-4.79l-2.663,0.873v-2.914c0-4.143-3.358-7.5-7.5-7.5
	s-7.5,3.357-7.5,7.5v2.914l-2.663-0.873c-3.936-1.287-8.173,0.854-9.464,4.79C330.932,52.521,333.076,56.758,337.012,58.049z"/>
<path d="M411.175,138.55l2.765,0.907l-1.74,2.417c-2.419,3.362-1.656,8.049,1.706,10.469c3.366,2.423,8.05,1.653,10.469-1.705
	l1.638-2.276c1.576,2.189,3.3,5.396,7.732,5.396c6.041,0,9.671-6.894,6.081-11.883l-1.74-2.417l2.765-0.907
	c3.936-1.291,6.08-5.528,4.789-9.464c-1.291-3.937-5.53-6.08-9.464-4.79l-2.663,0.873v-2.913c0-4.143-3.358-7.5-7.5-7.5
	c-4.142,0-7.5,3.357-7.5,7.5v2.913l-2.663-0.873c-3.935-1.285-8.172,0.854-9.464,4.79
	C405.095,133.021,407.24,137.259,411.175,138.55z"/>
<circle cx="345.493" cy="111.758" r="7.5"/>
<circle cx="465.501" cy="233.165" r="7.5"/>
<circle cx="387.502" cy="175.756" r="7.5"/>
<circle cx="468.501" cy="77.748" r="7.5"/>
<path d="M253.604,160.052l-2.49,14.54c-0.15,0.84-0.22,1.71-0.22,2.58c-0.01,4.02,1.65,7.92,4.54,10.7
	c2.903,2.811,6.655,4.27,10.48,4.27c4.682,0,6.331-1.404,20.01-8.6h0.01l13.05,6.859c9.923,5.263,22.008-2.041,21.98-13.229
	c0-0.87-0.07-1.74-0.22-2.58l-2.49-14.54l10.56-10.29c5.632-5.439,6.051-14.219,1.13-20.271c-3.905-4.834-9.439-5.319-9.439-5.319
	c-4.3-0.594-7.936,2.453-8.5,6.35c-0.603,4.119,2.258,7.902,6.34,8.5l-13.38,13.04c-1.771,1.73-2.58,4.21-2.16,6.64l3.16,18.421
	c0,0,0,0-0.01,0c-22.035-11.593-18.16-11.517-40.029-0.011h-0.01c-0.011,0.011-0.011,0.011-0.021,0.011l3.16-18.421
	c0.42-2.43-0.39-4.909-2.15-6.64l-13.39-13.04l18.5-2.689c2.44-0.36,4.55-1.891,5.64-4.101l8.28-16.76l3.26,6.61
	c1.271,2.58,3.851,4.189,6.73,4.189c5.552,0,9.172-5.84,6.729-10.83l-3.27-6.609c-5.508-11.28-21.541-10.996-26.909,0l-6.52,13.22
	c-14.879,2.161-19.532,1.858-24.041,7.439c-2.22,2.73-3.4,6.04-3.4,9.57C238.456,146.84,243.002,149.71,253.604,160.052z"/>
<path d="M504.5,262.75h-99.822l3.558-3.469c10.024-9.769,4.484-26.803-9.362-28.813l-19.263-2.8l-8.614-17.454
	c-6.194-12.553-24.106-12.547-30.296,0l-8.615,17.454l-19.262,2.8c-13.852,2.011-19.383,19.048-9.363,28.813l3.559,3.469h-26.833
	c0.439-4.332-0.993-8.82-4.304-12.133l-42.426-42.425c-5.849-5.848-15.364-5.848-21.213,0c-14.5,14.5-18.781,18.781-26.104,26.104
	l-28.749-28.749c-7.029-7.03-16.958-9.69-26.562-7.118c-9.603,2.573-16.873,9.843-19.446,19.445l-15.036,56.111
	c-8.977,3.812-16.02,10.852-19.833,19.834l-56.11,15.034c-20.447,5.477-27.309,31.024-12.328,46.008l28.749,28.749
	c-14.747,14.747-24.682,24.683-26.103,26.104c-5.863,5.862-5.864,15.351,0,21.214l42.426,42.426
	c2.924,2.924,6.765,4.386,10.606,4.386s7.683-1.462,10.606-4.386L269.963,277.75H497v177.497c-0.01,4.12-3.37,7.489-7.5,7.5H236.505
	c-4.13-0.011-7.49-3.38-7.5-7.5v-95.648c0-4.13-3.36-7.5-7.5-7.5c-4.13,0-7.49,3.36-7.5,7.48c0,0.01,0,0.02,0,0.02v95.648
	c0,6.01,2.34,11.66,6.59,15.91c4.25,4.239,9.9,6.59,15.91,6.59H489.5c12.379,0,22.5-10.013,22.5-22.5V270.251
	C512,266.076,508.586,262.75,504.5,262.75z M313.453,246.6c0.507-1.56-0.236-1.033,24.691-4.655
	c2.443-0.354,4.555-1.889,5.647-4.103c11.184-22.66,10.437-22.046,12.058-22.046s0.873-0.614,12.057,22.046
	c1.093,2.214,3.204,3.748,5.647,4.103l23.165,3.366c1.565,0.227,2.183,2.123,1.049,3.229l-14.579,14.211h-54.678
	C312.836,247.471,312.952,248.14,313.453,246.6z M125.87,221.758c2.49-9.293,14.102-12.415,20.913-5.604l28.749,28.749
	c-10.325,10.325-22.166,22.166-34.668,34.668l9.049-33.771c1.072-4.002-1.302-8.114-5.303-9.186
	c-4.001-1.073-8.114,1.302-9.186,5.303l-8.711,32.51c-4.456-2.059-9.217-3.203-14.042-3.41L125.87,221.758z M95.589,324.848
	c-12.708-11.974-7.457-33.119,9.091-37.946c8.131-2.372,16.842-0.069,22.698,6.159C116.858,303.578,106.106,314.33,95.589,324.848z
	 M18.682,344.254c-3.195-3.196-4.405-7.71-3.235-12.075c1.169-4.365,4.474-7.669,8.838-8.839l49.262-13.199
	c0.207,4.826,1.351,9.587,3.409,14.043l-32.509,8.711c-4.002,1.071-6.376,5.185-5.303,9.186c1.072,4.001,5.184,6.375,9.186,5.304
	l33.772-9.049c-12.504,12.503-24.348,24.348-34.668,34.668L18.682,344.254z M63.754,462.746l-42.425-42.425
	c1.587-1.587,13.764-13.764,31.406-31.406c0-0.001,0-0.001,0-0.001l0.001-0.001c13.74-13.74,122.166-122.165,138.704-138.704
	l0.002-0.002c13.153-13.154-3.966,3.966,31.406-31.406l42.432,42.417L63.754,462.746z"/>
<g>
</g>
<g>
</g>
<g>
</g>
<g>
</g>
<g>
</g>
<g>
</g>
<g>
</g>
<g>
</g>
<g>
</g>
<g>
</g>
<g>
</g>
<g>
</g>
<g>
</g>
<g>
</g>
<g>
</g>
</svg>
