<?xml version="1.0" encoding="iso-8859-1"?>
<!-- Generator: Adobe Illustrator 19.0.0, SVG Export Plug-In . SVG Version: 6.00 Build 0)  -->
<svg version="1.1" id="Capa_1" xmlns="http://www.w3.org/2000/svg" xmlns:xlink="http://www.w3.org/1999/xlink" x="0px" y="0px"
	 viewBox="0 0 512 512" style="enable-background:new 0 0 512 512;" xml:space="preserve">
<rect x="66" y="61" style="fill:#EE3C32;" width="380" height="40"/>
<polygon style="fill:#DAE1E5;" points="30,311 74.998,451 437.002,451 482,311 "/>
<polygon style="fill:#57D3EB;" points="404.193,375 422.763,311 89.237,311 107.807,375 "/>
<rect x="41" y="165" style="fill:#FA7D00;" width="430" height="40"/>
<rect x="10" y="271" style="fill:#FAC239;" width="492" height="40"/>
<polygon style="fill:#57D3EB;" points="58.48,205 77.63,271 434.37,271 453.52,205 "/>
<polygon style="fill:#4EA6FF;" points="108.115,205 125.039,271 386.961,271 403.885,205 "/>
<polygon style="fill:#DAE1E5;" points="430.553,101 81.447,101 97.858,165 414.142,165 "/>
<path style="fill:#231E1E;" d="M502,261h-54.316l13.347-46H471c5.522,0,10-4.478,10-10v-40c0-5.522-4.478-10-10-10h-43.97l11.282-44
	H446c5.522,0,10-4.478,10-10V61c0-5.522-4.478-10-10-10H66c-5.522,0-10,4.478-10,10v40c0,5.522,4.478,10,10,10h7.688l11.282,44H41
	c-5.522,0-10,4.478-10,10v40c0,5.522,4.478,10,10,10h9.969l13.347,46H10c-5.522,0-10,4.478-10,10v40c0,5.522,4.478,10,10,10h12.71
	l42.767,133.06c1.329,4.136,5.177,6.94,9.521,6.94h362.004c4.344,0,8.191-2.805,9.521-6.94L489.29,321H502c5.522,0,10-4.478,10-10
	v-40C512,265.478,507.522,261,502,261z M426.859,261h-27.011l11.795-46h28.562L426.859,261z M121.003,215h269.994l-11.796,46
	H132.799L121.003,215z M76,71h360v20H76V71z M94.335,111h323.33l-11.282,44H105.617L94.335,111z M51,175h410v20H51V175z M71.794,215
	h28.562l11.795,46h-27.01L71.794,215z M429.712,441H82.288l-38.57-120h38.008l16.478,56.787c1.239,4.272,5.154,7.213,9.604,7.213
	h296.387c4.449,0,8.364-2.94,9.604-7.213L430.274,321h38.008L429.712,441z M102.551,321h306.898l-12.767,44H115.317L102.551,321z
	 M492,301H20v-20h472V301z"/>
<g>
</g>
<g>
</g>
<g>
</g>
<g>
</g>
<g>
</g>
<g>
</g>
<g>
</g>
<g>
</g>
<g>
</g>
<g>
</g>
<g>
</g>
<g>
</g>
<g>
</g>
<g>
</g>
<g>
</g>
</svg>
